<mxfile host="Electron" modified="2023-09-09T14:59:45.158Z" agent="Mozilla/5.0 (Windows NT 10.0; Win64; x64) AppleWebKit/537.36 (KHTML, like Gecko) draw.io/21.6.5 Chrome/114.0.5735.243 Electron/25.3.1 Safari/537.36" etag="AK_s9Oq6nu7Hzk7YQO2w" version="21.6.5" type="device">
  <diagram id="CRpMxEqAcKfb3xmdyxo_" name="page1">
    <mxGraphModel dx="1658" dy="1198" grid="0" gridSize="10" guides="0" tooltips="1" connect="1" arrows="1" fold="1" page="0" pageScale="1" pageWidth="827" pageHeight="1169" math="0" shadow="0">
      <root>
        <mxCell id="0" />
        <mxCell id="1" parent="0" />
        <mxCell id="_teMyklafyHTN6LpO51u-10" value="VPC" style="sketch=0;outlineConnect=0;gradientColor=none;html=1;whiteSpace=wrap;fontSize=12;fontStyle=0;shape=mxgraph.aws4.group;grIcon=mxgraph.aws4.group_vpc;strokeColor=#879196;fillColor=none;verticalAlign=top;align=left;spacingLeft=30;fontColor=#879196;dashed=0;" parent="1" vertex="1">
          <mxGeometry x="630" y="280" width="350" height="320" as="geometry" />
        </mxCell>
        <mxCell id="_teMyklafyHTN6LpO51u-13" style="edgeStyle=orthogonalEdgeStyle;rounded=0;orthogonalLoop=1;jettySize=auto;html=1;startArrow=classic;startFill=1;endArrow=classic;endFill=1;strokeWidth=2;fillColor=#e1d5e7;strokeColor=#9673a6;" parent="1" source="_teMyklafyHTN6LpO51u-1" target="_teMyklafyHTN6LpO51u-10" edge="1">
          <mxGeometry relative="1" as="geometry">
            <Array as="points">
              <mxPoint x="570" y="350" />
              <mxPoint x="570" y="350" />
            </Array>
          </mxGeometry>
        </mxCell>
        <mxCell id="_teMyklafyHTN6LpO51u-1" value="VPC" style="sketch=0;outlineConnect=0;gradientColor=none;html=1;whiteSpace=wrap;fontSize=12;fontStyle=0;shape=mxgraph.aws4.group;grIcon=mxgraph.aws4.group_vpc;strokeColor=#879196;fillColor=none;verticalAlign=top;align=left;spacingLeft=30;fontColor=#879196;dashed=0;" parent="1" vertex="1">
          <mxGeometry x="50" y="280" width="350" height="320" as="geometry" />
        </mxCell>
        <mxCell id="_teMyklafyHTN6LpO51u-6" value="Corporate data center" style="points=[[0,0],[0.25,0],[0.5,0],[0.75,0],[1,0],[1,0.25],[1,0.5],[1,0.75],[1,1],[0.75,1],[0.5,1],[0.25,1],[0,1],[0,0.75],[0,0.5],[0,0.25]];outlineConnect=0;gradientColor=none;html=1;whiteSpace=wrap;fontSize=12;fontStyle=0;container=1;pointerEvents=0;collapsible=0;recursiveResize=0;shape=mxgraph.aws4.group;grIcon=mxgraph.aws4.group_corporate_data_center;strokeColor=#5A6C86;fillColor=none;verticalAlign=top;align=left;spacingLeft=30;fontColor=#5A6C86;dashed=0;" parent="1" vertex="1">
          <mxGeometry x="-320" y="345" width="200" height="200" as="geometry" />
        </mxCell>
        <mxCell id="_teMyklafyHTN6LpO51u-16" value="Traditional&#xa;server" style="sketch=0;outlineConnect=0;fontColor=#232F3E;gradientColor=none;strokeColor=#232F3E;fillColor=#ffffff;dashed=0;verticalLabelPosition=bottom;verticalAlign=top;align=center;html=1;fontSize=12;fontStyle=0;aspect=fixed;shape=mxgraph.aws4.resourceIcon;resIcon=mxgraph.aws4.traditional_server;" parent="_teMyklafyHTN6LpO51u-6" vertex="1">
          <mxGeometry x="40" y="63" width="60" height="60" as="geometry" />
        </mxCell>
        <mxCell id="_teMyklafyHTN6LpO51u-8" value="" style="shape=cylinder3;whiteSpace=wrap;html=1;boundedLbl=1;backgroundOutline=1;size=5.3333740234375;rotation=-90;fillColor=#e1d5e7;strokeColor=#9673a6;" parent="1" vertex="1">
          <mxGeometry x="-65" y="345" width="60" height="190" as="geometry" />
        </mxCell>
        <mxCell id="_teMyklafyHTN6LpO51u-2" value="Private subnet" style="points=[[0,0],[0.25,0],[0.5,0],[0.75,0],[1,0],[1,0.25],[1,0.5],[1,0.75],[1,1],[0.75,1],[0.5,1],[0.25,1],[0,1],[0,0.75],[0,0.5],[0,0.25]];outlineConnect=0;gradientColor=none;html=1;whiteSpace=wrap;fontSize=12;fontStyle=0;container=1;pointerEvents=0;collapsible=0;recursiveResize=0;shape=mxgraph.aws4.group;grIcon=mxgraph.aws4.group_security_group;grStroke=0;strokeColor=#147EBA;fillColor=#E6F2F8;verticalAlign=top;align=left;spacingLeft=30;fontColor=#147EBA;dashed=0;" parent="1" vertex="1">
          <mxGeometry x="70" y="320" width="307.29" height="250" as="geometry" />
        </mxCell>
        <mxCell id="_teMyklafyHTN6LpO51u-18" value="NLB" style="sketch=0;points=[[0,0,0],[0.25,0,0],[0.5,0,0],[0.75,0,0],[1,0,0],[0,1,0],[0.25,1,0],[0.5,1,0],[0.75,1,0],[1,1,0],[0,0.25,0],[0,0.5,0],[0,0.75,0],[1,0.25,0],[1,0.5,0],[1,0.75,0]];outlineConnect=0;fontColor=#232F3E;gradientColor=#945DF2;gradientDirection=north;fillColor=#5A30B5;strokeColor=#ffffff;dashed=0;verticalLabelPosition=bottom;verticalAlign=top;align=center;html=1;fontSize=12;fontStyle=0;aspect=fixed;shape=mxgraph.aws4.resourceIcon;resIcon=mxgraph.aws4.elastic_load_balancing;" parent="_teMyklafyHTN6LpO51u-2" vertex="1">
          <mxGeometry x="116" y="79" width="78" height="78" as="geometry" />
        </mxCell>
        <mxCell id="_teMyklafyHTN6LpO51u-11" value="Private subnet" style="points=[[0,0],[0.25,0],[0.5,0],[0.75,0],[1,0],[1,0.25],[1,0.5],[1,0.75],[1,1],[0.75,1],[0.5,1],[0.25,1],[0,1],[0,0.75],[0,0.5],[0,0.25]];outlineConnect=0;gradientColor=none;html=1;whiteSpace=wrap;fontSize=12;fontStyle=0;container=1;pointerEvents=0;collapsible=0;recursiveResize=0;shape=mxgraph.aws4.group;grIcon=mxgraph.aws4.group_security_group;grStroke=0;strokeColor=#147EBA;fillColor=#E6F2F8;verticalAlign=top;align=left;spacingLeft=30;fontColor=#147EBA;dashed=0;" parent="1" vertex="1">
          <mxGeometry x="650" y="320" width="307.29" height="250" as="geometry" />
        </mxCell>
        <mxCell id="_teMyklafyHTN6LpO51u-15" value="EC2" style="sketch=0;points=[[0,0,0],[0.25,0,0],[0.5,0,0],[0.75,0,0],[1,0,0],[0,1,0],[0.25,1,0],[0.5,1,0],[0.75,1,0],[1,1,0],[0,0.25,0],[0,0.5,0],[0,0.75,0],[1,0.25,0],[1,0.5,0],[1,0.75,0]];outlineConnect=0;fontColor=#232F3E;gradientColor=#F78E04;gradientDirection=north;fillColor=#D05C17;strokeColor=#ffffff;dashed=0;verticalLabelPosition=bottom;verticalAlign=top;align=center;html=1;fontSize=12;fontStyle=0;aspect=fixed;shape=mxgraph.aws4.resourceIcon;resIcon=mxgraph.aws4.ec2;" parent="_teMyklafyHTN6LpO51u-11" vertex="1">
          <mxGeometry x="40" y="79" width="78" height="78" as="geometry" />
        </mxCell>
        <mxCell id="_teMyklafyHTN6LpO51u-12" value="VPC Peering" style="sketch=0;outlineConnect=0;fontColor=#232F3E;gradientColor=none;fillColor=#4D27AA;strokeColor=none;dashed=0;verticalLabelPosition=bottom;verticalAlign=top;align=center;html=1;fontSize=12;fontStyle=0;aspect=fixed;pointerEvents=1;shape=mxgraph.aws4.peering;" parent="1" vertex="1">
          <mxGeometry x="480" y="250" width="78" height="78" as="geometry" />
        </mxCell>
        <mxCell id="_teMyklafyHTN6LpO51u-14" value="DirrectConnect" style="sketch=0;points=[[0,0,0],[0.25,0,0],[0.5,0,0],[0.75,0,0],[1,0,0],[0,1,0],[0.25,1,0],[0.5,1,0],[0.75,1,0],[1,1,0],[0,0.25,0],[0,0.5,0],[0,0.75,0],[1,0.25,0],[1,0.5,0],[1,0.75,0]];outlineConnect=0;fontColor=#232F3E;gradientColor=#945DF2;gradientDirection=north;fillColor=#5A30B5;strokeColor=#ffffff;dashed=0;verticalLabelPosition=bottom;verticalAlign=top;align=center;html=1;fontSize=12;fontStyle=0;aspect=fixed;shape=mxgraph.aws4.resourceIcon;resIcon=mxgraph.aws4.direct_connect;" parent="1" vertex="1">
          <mxGeometry x="-74" y="310" width="78" height="78" as="geometry" />
        </mxCell>
        <mxCell id="_teMyklafyHTN6LpO51u-17" style="edgeStyle=orthogonalEdgeStyle;rounded=0;orthogonalLoop=1;jettySize=auto;html=1;entryX=1;entryY=0.5;entryDx=0;entryDy=0;entryPerimeter=0;strokeWidth=5;fillColor=#e51400;strokeColor=#B20000;" parent="1" source="_teMyklafyHTN6LpO51u-15" target="_teMyklafyHTN6LpO51u-18" edge="1">
          <mxGeometry relative="1" as="geometry">
            <Array as="points" />
          </mxGeometry>
        </mxCell>
        <mxCell id="_teMyklafyHTN6LpO51u-19" style="edgeStyle=orthogonalEdgeStyle;rounded=0;orthogonalLoop=1;jettySize=auto;html=1;strokeWidth=5;fillColor=#e51400;strokeColor=#B20000;" parent="1" source="_teMyklafyHTN6LpO51u-18" target="_teMyklafyHTN6LpO51u-16" edge="1">
          <mxGeometry relative="1" as="geometry" />
        </mxCell>
        <mxCell id="_teMyklafyHTN6LpO51u-25" value="VPC" style="sketch=0;outlineConnect=0;gradientColor=none;html=1;whiteSpace=wrap;fontSize=12;fontStyle=0;shape=mxgraph.aws4.group;grIcon=mxgraph.aws4.group_vpc;strokeColor=#879196;fillColor=none;verticalAlign=top;align=left;spacingLeft=30;fontColor=#879196;dashed=0;" parent="1" vertex="1">
          <mxGeometry x="628" y="-130" width="350" height="320" as="geometry" />
        </mxCell>
        <mxCell id="_teMyklafyHTN6LpO51u-26" style="edgeStyle=orthogonalEdgeStyle;rounded=0;orthogonalLoop=1;jettySize=auto;html=1;startArrow=classic;startFill=1;endArrow=classic;endFill=1;strokeWidth=2;fillColor=#e1d5e7;strokeColor=#9673a6;" parent="1" source="_teMyklafyHTN6LpO51u-27" target="_teMyklafyHTN6LpO51u-25" edge="1">
          <mxGeometry relative="1" as="geometry">
            <Array as="points">
              <mxPoint x="568" y="-60" />
              <mxPoint x="568" y="-60" />
            </Array>
          </mxGeometry>
        </mxCell>
        <mxCell id="_teMyklafyHTN6LpO51u-27" value="VPC" style="sketch=0;outlineConnect=0;gradientColor=none;html=1;whiteSpace=wrap;fontSize=12;fontStyle=0;shape=mxgraph.aws4.group;grIcon=mxgraph.aws4.group_vpc;strokeColor=#879196;fillColor=none;verticalAlign=top;align=left;spacingLeft=30;fontColor=#879196;dashed=0;" parent="1" vertex="1">
          <mxGeometry x="48" y="-130" width="350" height="320" as="geometry" />
        </mxCell>
        <mxCell id="_teMyklafyHTN6LpO51u-28" value="Corporate data center" style="points=[[0,0],[0.25,0],[0.5,0],[0.75,0],[1,0],[1,0.25],[1,0.5],[1,0.75],[1,1],[0.75,1],[0.5,1],[0.25,1],[0,1],[0,0.75],[0,0.5],[0,0.25]];outlineConnect=0;gradientColor=none;html=1;whiteSpace=wrap;fontSize=12;fontStyle=0;container=1;pointerEvents=0;collapsible=0;recursiveResize=0;shape=mxgraph.aws4.group;grIcon=mxgraph.aws4.group_corporate_data_center;strokeColor=#5A6C86;fillColor=none;verticalAlign=top;align=left;spacingLeft=30;fontColor=#5A6C86;dashed=0;" parent="1" vertex="1">
          <mxGeometry x="-322" y="-65" width="200" height="200" as="geometry" />
        </mxCell>
        <mxCell id="_teMyklafyHTN6LpO51u-29" value="Traditional&#xa;server" style="sketch=0;outlineConnect=0;fontColor=#232F3E;gradientColor=none;strokeColor=#232F3E;fillColor=#ffffff;dashed=0;verticalLabelPosition=bottom;verticalAlign=top;align=center;html=1;fontSize=12;fontStyle=0;aspect=fixed;shape=mxgraph.aws4.resourceIcon;resIcon=mxgraph.aws4.traditional_server;" parent="_teMyklafyHTN6LpO51u-28" vertex="1">
          <mxGeometry x="40" y="63" width="60" height="60" as="geometry" />
        </mxCell>
        <mxCell id="_teMyklafyHTN6LpO51u-30" value="" style="shape=cylinder3;whiteSpace=wrap;html=1;boundedLbl=1;backgroundOutline=1;size=5.3333740234375;rotation=-90;fillColor=#e1d5e7;strokeColor=#9673a6;" parent="1" vertex="1">
          <mxGeometry x="-67" y="-65" width="60" height="190" as="geometry" />
        </mxCell>
        <mxCell id="_teMyklafyHTN6LpO51u-31" value="Private subnet" style="points=[[0,0],[0.25,0],[0.5,0],[0.75,0],[1,0],[1,0.25],[1,0.5],[1,0.75],[1,1],[0.75,1],[0.5,1],[0.25,1],[0,1],[0,0.75],[0,0.5],[0,0.25]];outlineConnect=0;gradientColor=none;html=1;whiteSpace=wrap;fontSize=12;fontStyle=0;container=1;pointerEvents=0;collapsible=0;recursiveResize=0;shape=mxgraph.aws4.group;grIcon=mxgraph.aws4.group_security_group;grStroke=0;strokeColor=#147EBA;fillColor=#E6F2F8;verticalAlign=top;align=left;spacingLeft=30;fontColor=#147EBA;dashed=0;" parent="1" vertex="1">
          <mxGeometry x="68" y="-90" width="307.29" height="250" as="geometry" />
        </mxCell>
        <mxCell id="_teMyklafyHTN6LpO51u-33" value="Private subnet" style="points=[[0,0],[0.25,0],[0.5,0],[0.75,0],[1,0],[1,0.25],[1,0.5],[1,0.75],[1,1],[0.75,1],[0.5,1],[0.25,1],[0,1],[0,0.75],[0,0.5],[0,0.25]];outlineConnect=0;gradientColor=none;html=1;whiteSpace=wrap;fontSize=12;fontStyle=0;container=1;pointerEvents=0;collapsible=0;recursiveResize=0;shape=mxgraph.aws4.group;grIcon=mxgraph.aws4.group_security_group;grStroke=0;strokeColor=#147EBA;fillColor=#E6F2F8;verticalAlign=top;align=left;spacingLeft=30;fontColor=#147EBA;dashed=0;" parent="1" vertex="1">
          <mxGeometry x="648" y="-90" width="307.29" height="250" as="geometry" />
        </mxCell>
        <mxCell id="_teMyklafyHTN6LpO51u-34" value="EC2" style="sketch=0;points=[[0,0,0],[0.25,0,0],[0.5,0,0],[0.75,0,0],[1,0,0],[0,1,0],[0.25,1,0],[0.5,1,0],[0.75,1,0],[1,1,0],[0,0.25,0],[0,0.5,0],[0,0.75,0],[1,0.25,0],[1,0.5,0],[1,0.75,0]];outlineConnect=0;fontColor=#232F3E;gradientColor=#F78E04;gradientDirection=north;fillColor=#D05C17;strokeColor=#ffffff;dashed=0;verticalLabelPosition=bottom;verticalAlign=top;align=center;html=1;fontSize=12;fontStyle=0;aspect=fixed;shape=mxgraph.aws4.resourceIcon;resIcon=mxgraph.aws4.ec2;" parent="_teMyklafyHTN6LpO51u-33" vertex="1">
          <mxGeometry x="40" y="79" width="78" height="78" as="geometry" />
        </mxCell>
        <mxCell id="_teMyklafyHTN6LpO51u-35" value="VPC Peering" style="sketch=0;outlineConnect=0;fontColor=#232F3E;gradientColor=none;fillColor=#4D27AA;strokeColor=none;dashed=0;verticalLabelPosition=bottom;verticalAlign=top;align=center;html=1;fontSize=12;fontStyle=0;aspect=fixed;pointerEvents=1;shape=mxgraph.aws4.peering;" parent="1" vertex="1">
          <mxGeometry x="478" y="-160" width="78" height="78" as="geometry" />
        </mxCell>
        <mxCell id="_teMyklafyHTN6LpO51u-36" value="DirrectConnect" style="sketch=0;points=[[0,0,0],[0.25,0,0],[0.5,0,0],[0.75,0,0],[1,0,0],[0,1,0],[0.25,1,0],[0.5,1,0],[0.75,1,0],[1,1,0],[0,0.25,0],[0,0.5,0],[0,0.75,0],[1,0.25,0],[1,0.5,0],[1,0.75,0]];outlineConnect=0;fontColor=#232F3E;gradientColor=#945DF2;gradientDirection=north;fillColor=#5A30B5;strokeColor=#ffffff;dashed=0;verticalLabelPosition=bottom;verticalAlign=top;align=center;html=1;fontSize=12;fontStyle=0;aspect=fixed;shape=mxgraph.aws4.resourceIcon;resIcon=mxgraph.aws4.direct_connect;" parent="1" vertex="1">
          <mxGeometry x="-76" y="-100" width="78" height="78" as="geometry" />
        </mxCell>
        <mxCell id="_teMyklafyHTN6LpO51u-37" style="edgeStyle=orthogonalEdgeStyle;rounded=0;orthogonalLoop=1;jettySize=auto;html=1;strokeWidth=5;" parent="1" source="_teMyklafyHTN6LpO51u-34" target="_teMyklafyHTN6LpO51u-29" edge="1">
          <mxGeometry relative="1" as="geometry">
            <Array as="points" />
            <mxPoint x="261.99999999999955" y="28" as="targetPoint" />
          </mxGeometry>
        </mxCell>
        <mxCell id="_teMyklafyHTN6LpO51u-40" value="" style="verticalLabelPosition=bottom;verticalAlign=top;html=1;shape=mxgraph.basic.4_point_star_2;dx=1;rotation=45;strokeWidth=13;fillColor=#e51400;fontColor=#ffffff;strokeColor=#B20000;" parent="1" vertex="1">
          <mxGeometry x="187" y="-19" width="100" height="100" as="geometry" />
        </mxCell>
        <mxCell id="_teMyklafyHTN6LpO51u-42" value="そのままでは&lt;br style=&quot;font-size: 17px;&quot;&gt;接続できない" style="text;html=1;align=center;verticalAlign=middle;resizable=0;points=[];autosize=1;strokeColor=none;fillColor=none;fontSize=17;fontStyle=1" parent="1" vertex="1">
          <mxGeometry x="177" y="72" width="120" height="53" as="geometry" />
        </mxCell>
      </root>
    </mxGraphModel>
  </diagram>
</mxfile>
